<svg xmlns="http://www.w3.org/2000/svg" version="1.1" xmlns:xlink="http://www.w3.org/1999/xlink" xmlns:svgjs="http://svgjs.dev/svgjs" width="1920" height="1080" preserveAspectRatio="none" viewBox="0 0 1920 1080"><g mask="url(&quot;#SvgjsMask1113&quot;)" fill="none"><path d="M952 355L951 988" stroke-width="10" stroke="url(&quot;#SvgjsLinearGradient1114&quot;)" stroke-linecap="round" class="Up"></path><path d="M1575 727L1574 429" stroke-width="6" stroke="url(&quot;#SvgjsLinearGradient1115&quot;)" stroke-linecap="round" class="Up"></path><path d="M1202 76L1201 687" stroke-width="8" stroke="url(&quot;#SvgjsLinearGradient1116&quot;)" stroke-linecap="round" class="Down"></path><path d="M526 159L525 -405" stroke-width="8" stroke="url(&quot;#SvgjsLinearGradient1117&quot;)" stroke-linecap="round" class="Down"></path><path d="M1879 523L1878 40" stroke-width="8" stroke="url(&quot;#SvgjsLinearGradient1115&quot;)" stroke-linecap="round" class="Up"></path><path d="M333 761L332 160" stroke-width="6" stroke="url(&quot;#SvgjsLinearGradient1118&quot;)" stroke-linecap="round" class="Down"></path><path d="M1853 963L1852 1699" stroke-width="6" stroke="url(&quot;#SvgjsLinearGradient1117&quot;)" stroke-linecap="round" class="Down"></path><path d="M1185 763L1184 1145" stroke-width="10" stroke="url(&quot;#SvgjsLinearGradient1118&quot;)" stroke-linecap="round" class="Down"></path><path d="M504 492L503 915" stroke-width="10" stroke="url(&quot;#SvgjsLinearGradient1119&quot;)" stroke-linecap="round" class="Up"></path><path d="M1005 750L1004 91" stroke-width="10" stroke="url(&quot;#SvgjsLinearGradient1115&quot;)" stroke-linecap="round" class="Up"></path><path d="M1414 1009L1413 1449" stroke-width="6" stroke="url(&quot;#SvgjsLinearGradient1117&quot;)" stroke-linecap="round" class="Down"></path><path d="M780 937L779 1294" stroke-width="10" stroke="url(&quot;#SvgjsLinearGradient1114&quot;)" stroke-linecap="round" class="Up"></path><path d="M679 745L678 1030" stroke-width="6" stroke="url(&quot;#SvgjsLinearGradient1118&quot;)" stroke-linecap="round" class="Down"></path><path d="M1255 235L1254 -553" stroke-width="10" stroke="url(&quot;#SvgjsLinearGradient1118&quot;)" stroke-linecap="round" class="Down"></path><path d="M1653 934L1652 1345" stroke-width="8" stroke="url(&quot;#SvgjsLinearGradient1115&quot;)" stroke-linecap="round" class="Up"></path><path d="M459 120L458 837" stroke-width="10" stroke="url(&quot;#SvgjsLinearGradient1115&quot;)" stroke-linecap="round" class="Up"></path><path d="M886 377L885 -233" stroke-width="8" stroke="url(&quot;#SvgjsLinearGradient1115&quot;)" stroke-linecap="round" class="Up"></path><path d="M1572 285L1571 564" stroke-width="8" stroke="url(&quot;#SvgjsLinearGradient1114&quot;)" stroke-linecap="round" class="Up"></path><path d="M1395 459L1394 -165" stroke-width="8" stroke="url(&quot;#SvgjsLinearGradient1115&quot;)" stroke-linecap="round" class="Up"></path><path d="M1732 1025L1731 583" stroke-width="10" stroke="url(&quot;#SvgjsLinearGradient1118&quot;)" stroke-linecap="round" class="Down"></path><path d="M1036 66L1035 -642" stroke-width="8" stroke="url(&quot;#SvgjsLinearGradient1115&quot;)" stroke-linecap="round" class="Up"></path><path d="M222 198L221 -380" stroke-width="10" stroke="url(&quot;#SvgjsLinearGradient1116&quot;)" stroke-linecap="round" class="Down"></path><path d="M887 410L886 -391" stroke-width="8" stroke="url(&quot;#SvgjsLinearGradient1116&quot;)" stroke-linecap="round" class="Down"></path><path d="M117 738L116 32" stroke-width="8" stroke="url(&quot;#SvgjsLinearGradient1115&quot;)" stroke-linecap="round" class="Up"></path><path d="M896 125L895 753" stroke-width="6" stroke="url(&quot;#SvgjsLinearGradient1117&quot;)" stroke-linecap="round" class="Down"></path><path d="M1622 969L1621 1605" stroke-width="10" stroke="url(&quot;#SvgjsLinearGradient1116&quot;)" stroke-linecap="round" class="Down"></path><path d="M917 356L916 889" stroke-width="8" stroke="url(&quot;#SvgjsLinearGradient1116&quot;)" stroke-linecap="round" class="Down"></path><path d="M1241 937L1240 266" stroke-width="10" stroke="url(&quot;#SvgjsLinearGradient1117&quot;)" stroke-linecap="round" class="Down"></path><path d="M1181 338L1180 22" stroke-width="10" stroke="url(&quot;#SvgjsLinearGradient1114&quot;)" stroke-linecap="round" class="Up"></path><path d="M773 282L772 -134" stroke-width="6" stroke="url(&quot;#SvgjsLinearGradient1117&quot;)" stroke-linecap="round" class="Down"></path><path d="M160 447L159 1168" stroke-width="10" stroke="url(&quot;#SvgjsLinearGradient1118&quot;)" stroke-linecap="round" class="Down"></path><path d="M1094 1036L1093 479" stroke-width="8" stroke="url(&quot;#SvgjsLinearGradient1114&quot;)" stroke-linecap="round" class="Up"></path><path d="M747 185L746 732" stroke-width="8" stroke="url(&quot;#SvgjsLinearGradient1119&quot;)" stroke-linecap="round" class="Up"></path><path d="M1375 215L1374 668" stroke-width="6" stroke="url(&quot;#SvgjsLinearGradient1118&quot;)" stroke-linecap="round" class="Down"></path><path d="M388 724L387 395" stroke-width="6" stroke="url(&quot;#SvgjsLinearGradient1118&quot;)" stroke-linecap="round" class="Down"></path><path d="M1623 343L1622 62" stroke-width="10" stroke="url(&quot;#SvgjsLinearGradient1118&quot;)" stroke-linecap="round" class="Down"></path><path d="M1848 80L1847 726" stroke-width="6" stroke="url(&quot;#SvgjsLinearGradient1117&quot;)" stroke-linecap="round" class="Down"></path><path d="M43 722L42 165" stroke-width="6" stroke="url(&quot;#SvgjsLinearGradient1117&quot;)" stroke-linecap="round" class="Down"></path><path d="M462 52L461 -321" stroke-width="10" stroke="url(&quot;#SvgjsLinearGradient1119&quot;)" stroke-linecap="round" class="Up"></path><path d="M846 699L845 35" stroke-width="10" stroke="url(&quot;#SvgjsLinearGradient1116&quot;)" stroke-linecap="round" class="Down"></path><path d="M1219 380L1218 1069" stroke-width="8" stroke="url(&quot;#SvgjsLinearGradient1115&quot;)" stroke-linecap="round" class="Up"></path><path d="M485 70L484 -712" stroke-width="10" stroke="url(&quot;#SvgjsLinearGradient1119&quot;)" stroke-linecap="round" class="Up"></path><path d="M627 406L626 1093" stroke-width="8" stroke="url(&quot;#SvgjsLinearGradient1118&quot;)" stroke-linecap="round" class="Down"></path><path d="M1634 366L1633 -328" stroke-width="8" stroke="url(&quot;#SvgjsLinearGradient1115&quot;)" stroke-linecap="round" class="Up"></path><path d="M71 15L70 -373" stroke-width="10" stroke="url(&quot;#SvgjsLinearGradient1118&quot;)" stroke-linecap="round" class="Down"></path><path d="M110 702L109 400" stroke-width="8" stroke="url(&quot;#SvgjsLinearGradient1119&quot;)" stroke-linecap="round" class="Up"></path><path d="M1768 1079L1767 574" stroke-width="10" stroke="url(&quot;#SvgjsLinearGradient1114&quot;)" stroke-linecap="round" class="Up"></path><path d="M1016 1021L1015 1430" stroke-width="8" stroke="url(&quot;#SvgjsLinearGradient1116&quot;)" stroke-linecap="round" class="Down"></path></g><defs><mask id="SvgjsMask1113"><rect width="1920" height="1080" fill="#ffffff"></rect></mask><linearGradient x1="0%" y1="100%" x2="0%" y2="0%" id="SvgjsLinearGradient1114"><stop stop-color="rgba(206, 238, 224, 0)" offset="0"></stop><stop stop-color="rgba(206, 238, 224, 1)" offset="1"></stop></linearGradient><linearGradient x1="0%" y1="100%" x2="0%" y2="0%" id="SvgjsLinearGradient1115"><stop stop-color="rgba(16, 191, 177, 0)" offset="0"></stop><stop stop-color="rgba(16, 191, 177, 1)" offset="1"></stop></linearGradient><linearGradient x1="0%" y1="0%" x2="0%" y2="100%" id="SvgjsLinearGradient1116"><stop stop-color="rgba(206, 238, 224, 0)" offset="0"></stop><stop stop-color="rgba(206, 238, 224, 1)" offset="1"></stop></linearGradient><linearGradient x1="0%" y1="0%" x2="0%" y2="100%" id="SvgjsLinearGradient1117"><stop stop-color="rgba(37, 188, 135, 0)" offset="0"></stop><stop stop-color="rgba(37, 188, 135, 1)" offset="1"></stop></linearGradient><linearGradient x1="0%" y1="0%" x2="0%" y2="100%" id="SvgjsLinearGradient1118"><stop stop-color="rgba(16, 191, 177, 0)" offset="0"></stop><stop stop-color="rgba(16, 191, 177, 1)" offset="1"></stop></linearGradient><linearGradient x1="0%" y1="100%" x2="0%" y2="0%" id="SvgjsLinearGradient1119"><stop stop-color="rgba(37, 188, 135, 0)" offset="0"></stop><stop stop-color="rgba(37, 188, 135, 1)" offset="1"></stop></linearGradient></defs></svg>